<?xml version="1.0" encoding="utf-8"?>
<!-- Generator: Adobe Illustrator 28.1.0, SVG Export Plug-In . SVG Version: 6.00 Build 0)  -->
<svg version="1.1" id="Layer_1" xmlns="http://www.w3.org/2000/svg" xmlns:xlink="http://www.w3.org/1999/xlink" x="0px" y="0px"
	 viewBox="0 0 24 24" style="enable-background:new 0 0 24 24;" xml:space="preserve">
<style type="text/css">
	.st0{fill:none;stroke:#FFFFFF;stroke-width:1.5;stroke-linecap:round;stroke-linejoin:round;}
</style>
<path class="st0" d="M20,7l-8,4L4,7"/>
<path class="st0" d="M18.6,4.7l-5-2.3c-1-0.5-2.2-0.5-3.2,0l-5,2.3C3.9,5.3,3,6.8,3,8.5v7.1c0,1.6,0.9,3.1,2.4,3.8l5,2.3
	c1,0.5,2.2,0.5,3.2,0l5-2.3c1.4-0.7,2.4-2.2,2.4-3.8V8.5C21,6.8,20.1,5.3,18.6,4.7z"/>
<path class="st0" d="M8,4l9,5v10.5"/>
<path class="st0" d="M12,11v11"/>
</svg>
