<?xml version="1.0" encoding="utf-8"?>
<!-- Generator: Adobe Illustrator 28.1.0, SVG Export Plug-In . SVG Version: 6.00 Build 0)  -->
<svg version="1.1" id="Layer_1" xmlns="http://www.w3.org/2000/svg" xmlns:xlink="http://www.w3.org/1999/xlink" x="0px" y="0px"
	 viewBox="0 0 51 51" style="enable-background:new 0 0 51 51;" xml:space="preserve">
<style type="text/css">
	.st0{fill:#FFFFFF;}
</style>
<path class="st0" d="M25.4,30.2c-5.6,0-10.1-4.5-10.1-10.1s4.5-10.1,10.1-10.1c5.6,0,10.1,4.5,10.1,10.1S31,30.2,25.4,30.2z"/>
<path class="st0" d="M25.4,0.4c-13.8,0-25,11.2-25,25s11.2,25,25,25s25-11.2,25-25S39.2,0.4,25.4,0.4z M42,39.3
	c-2-2.9-4.7-5.3-7.9-6.9c-1.3-0.6-2.7-0.6-4,0c-1.5,0.7-3,1.1-4.7,1.1s-3.2-0.4-4.7-1.1c-1.3-0.6-2.8-0.6-4,0
	c-3.2,1.5-5.9,3.9-7.9,6.9c-3.2-3.8-5.1-8.6-5.1-13.9c0-11.9,9.7-21.7,21.7-21.7s21.7,9.7,21.7,21.7C47.1,30.7,45.2,35.6,42,39.3z"
	/>
</svg>
