<?xml version="1.0" encoding="utf-8"?>
<!-- Generator: Adobe Illustrator 28.1.0, SVG Export Plug-In . SVG Version: 6.00 Build 0)  -->
<svg version="1.1" id="Layer_1" xmlns="http://www.w3.org/2000/svg" xmlns:xlink="http://www.w3.org/1999/xlink" x="0px" y="0px"
	 viewBox="0 0 24 24" style="enable-background:new 0 0 24 24;" xml:space="preserve">
<style type="text/css">
	.st0{fill:#FFFFFF;}
</style>
<path class="st0" d="M20.7,15.7l-0.6-0.4l0,0L20.7,15.7z M19.8,17.3l0.6,0.4l0,0L19.8,17.3z M3.3,8.3L2.6,7.9l0,0L3.3,8.3z M4.2,6.7
	l0.6,0.4L4.2,6.7z M6.8,6.1l0.4-0.7l0,0L6.8,6.1z M4,10.7l-0.4,0.7l0,0L4,10.7z M17.2,17.9l-0.4,0.7l0,0L17.2,17.9z M20,13.3
	l-0.4,0.7v0L20,13.3z M4.2,17.3l-0.6,0.4l0,0L4.2,17.3z M3.3,15.7l0.6-0.4l0,0L3.3,15.7z M19.8,6.7l0.6-0.4l0,0L19.8,6.7z M20.7,8.3
	l-0.6,0.4l0,0L20.7,8.3z M20,10.7l0.4,0.7L20,10.7z M17.2,6.1l0.4,0.7l0,0L17.2,6.1z M4,13.3l0.4,0.7l0,0L4,13.3z M6.8,17.9
	l-0.4-0.7h0L6.8,17.9z M17.1,6.1l-0.4-0.7L17.1,6.1z M6.9,6.1L6.6,6.8l0,0L6.9,6.1z M17.1,17.9l0.4-0.7l0,0L17.1,17.9z M6.9,17.9
	l0.4,0.7l0,0L6.9,17.9z M11,3.8H13V2.2H11V3.8z M13,20.2H11v1.5H13V20.2z M11,20.2c-0.7,0-1.2-0.5-1.2-1H8.4c0,1.4,1.2,2.5,2.7,2.5
	V20.2z M14.1,19.2c0,0.5-0.5,1-1.2,1v1.5c1.4,0,2.7-1.1,2.7-2.5H14.1z M13,3.8c0.7,0,1.2,0.5,1.2,1.1h1.5c0-1.4-1.2-2.6-2.7-2.6V3.8
	z M11,2.2c-1.4,0-2.7,1.1-2.7,2.6h1.5c0-0.5,0.5-1.1,1.2-1.1V2.2z M20.1,15.3l-1,1.6l1.3,0.8l1-1.6L20.1,15.3z M3.9,8.7l1-1.6
	L3.6,6.3l-1,1.6L3.9,8.7z M4.9,7.1c0.3-0.5,1-0.7,1.6-0.4l0.7-1.3C5.9,4.7,4.3,5.1,3.6,6.3L4.9,7.1z M4.3,10.1
	C3.8,9.8,3.6,9.1,3.9,8.7L2.6,7.9c-0.8,1.2-0.3,2.8,1,3.5L4.3,10.1z M19.1,16.9c-0.3,0.5-1,0.7-1.6,0.4l-0.7,1.3
	c1.2,0.7,2.9,0.3,3.6-0.9L19.1,16.9z M21.4,16.1c0.8-1.2,0.3-2.8-1-3.5l-0.7,1.3c0.6,0.3,0.7,0.9,0.4,1.4L21.4,16.1z M4.9,16.9
	l-1-1.6l-1.3,0.8l1,1.6L4.9,16.9z M19.1,7.1l1,1.6l1.3-0.8l-1-1.6L19.1,7.1z M20.1,8.7c0.3,0.5,0.1,1.1-0.4,1.4l0.7,1.3
	c1.3-0.7,1.7-2.3,1-3.5L20.1,8.7z M17.5,6.7c0.6-0.3,1.3-0.1,1.6,0.4l1.3-0.8c-0.7-1.2-2.4-1.6-3.6-0.9L17.5,6.7z M3.9,15.3
	c-0.3-0.5-0.1-1.1,0.4-1.4l-0.7-1.3c-1.3,0.7-1.7,2.3-1,3.5L3.9,15.3z M3.6,17.7c0.7,1.2,2.4,1.6,3.6,0.9l-0.7-1.3
	c-0.6,0.3-1.3,0.1-1.6-0.4L3.6,17.7z M17.4,6.8l0.1-0.1l-0.7-1.3l-0.1,0.1L17.4,6.8z M6.5,6.7l0.1,0.1l0.7-1.3L7.2,5.4L6.5,6.7z
	 M17.5,17.3l-0.1-0.1l-0.7,1.3l0.1,0.1L17.5,17.3z M6.6,17.2l-0.1,0.1l0.7,1.3l0.1-0.1L6.6,17.2z M3.6,11.4c0.5,0.3,0.5,0.9,0,1.2
	l0.7,1.3c1.5-0.8,1.5-3,0-3.8L3.6,11.4z M7.3,18.5c0.5-0.3,1.1,0.1,1.1,0.7h1.5c0-1.7-1.8-2.8-3.3-2L7.3,18.5z M15.6,19.2
	c0-0.6,0.6-0.9,1.1-0.7l0.7-1.3c-1.5-0.8-3.3,0.3-3.3,2H15.6z M20.4,12.6c-0.5-0.3-0.5-0.9,0-1.2l-0.7-1.3c-1.5,0.8-1.5,3,0,3.8
	L20.4,12.6z M6.6,6.8c1.5,0.8,3.3-0.3,3.3-2H8.4c0,0.6-0.6,0.9-1.1,0.7L6.6,6.8z M16.7,5.5c-0.5,0.3-1.1-0.1-1.1-0.7h-1.5
	c0,1.7,1.8,2.8,3.3,2L16.7,5.5z M14.2,12c0,1.2-1,2.2-2.2,2.2v1.5c2.1,0,3.8-1.7,3.8-3.8H14.2z M12,14.2c-1.2,0-2.2-1-2.2-2.2H8.3
	c0,2.1,1.7,3.8,3.7,3.8V14.2z M9.8,12c0-1.2,1-2.2,2.2-2.2V8.2c-2.1,0-3.7,1.7-3.7,3.8H9.8z M12,9.8c1.2,0,2.2,1,2.2,2.2h1.5
	c0-2.1-1.7-3.8-3.8-3.8V9.8z"/>
</svg>
